# xmcd
#
# Track frame offsets:
#	150
#	23672
#	45295
#	56722
#	73307
#	94347
#	122622
#	144817
#	167765
#
# Disc length: 2611 seconds
#
# Revision: 1
# Processed by: cddbd v1.4PL0 Copyright (c) Steve Scherf et al.
# Submitted via: audiograbber 1.82.02
#
DISCID=740a3109
DTITLE=gladys knigh and the pips - 2nd anniversary
DYEAR=1975
DGENRE=soul
TTITLE0=money
TTITLE1=street brothers
TTITLE2=part time love
TTITLE3=at every end there's a beginning
TTITLE4=georgia on my mind
TTITLE5=you and me against the world
TTITLE6=where do i put his memory
TTITLE7=summer sun
TTITLE8=feel like makin' love
EXTD=
EXTT0=
EXTT1=
EXTT2=
EXTT3=
EXTT4=
EXTT5=
EXTT6=
EXTT7=
EXTT8=
PLAYORDER=
